<svg width="17" height="16" viewBox="0 0 17 16" fill="none" xmlns="http://www.w3.org/2000/svg">
<path d="M8.5 0C9.8526 0 11.1498 0.532329 12.1062 1.47988C13.0627 2.42743 13.6 3.71259 13.6 5.05263V5.89474H17V7.57895H16.0081L15.3646 15.2278C15.3469 15.4382 15.2501 15.6344 15.0933 15.7774C14.9365 15.9204 14.7311 15.9999 14.518 16H2.482C2.26886 15.9999 2.06354 15.9204 1.90674 15.7774C1.74993 15.6344 1.65309 15.4382 1.6354 15.2278L0.9911 7.57895H0V5.89474H3.4V5.05263C3.4 3.71259 3.93732 2.42743 4.89376 1.47988C5.85019 0.532329 7.1474 0 8.5 0ZM14.3021 7.57895H2.69705L3.264 14.3158H13.7352L14.3021 7.57895ZM9.35 9.26316V12.6316H7.65V9.26316H9.35ZM5.95 9.26316V12.6316H4.25V9.26316H5.95ZM12.75 9.26316V12.6316H11.05V9.26316H12.75ZM8.5 1.68421C7.62769 1.68421 6.78876 2.01637 6.15671 2.61198C5.52466 3.20759 5.14787 4.02109 5.10425 4.88421L5.1 5.05263V5.89474H11.9V5.05263C11.9 4.18843 11.5647 3.35728 10.9635 2.73111C10.3623 2.10493 9.54121 1.73163 8.67 1.68842L8.5 1.68421Z" fill="black"/>
</svg>
