<svg width="18" height="18" viewBox="0 0 18 18" fill="none" xmlns="http://www.w3.org/2000/svg">
<circle cx="9" cy="9" r="9" transform="rotate(-90 9 9)" fill="#F5F5F5"/>
<path d="M12.701 8.55921L9.61532 11.6541C9.57858 11.6908 9.53879 11.7168 9.49593 11.732C9.45307 11.7474 9.40716 11.7551 9.35818 11.7551C9.3092 11.7551 9.26328 11.7474 9.22042 11.732C9.17756 11.7168 9.13777 11.6908 9.10103 11.6541L6.00613 8.55921C5.92042 8.47349 5.87756 8.36635 5.87756 8.23778C5.87756 8.10921 5.92348 7.999 6.01532 7.90717C6.10716 7.81533 6.2143 7.76941 6.33675 7.76941C6.4592 7.76941 6.56634 7.81533 6.65818 7.90717L9.35818 10.6072L12.0582 7.90717C12.1439 7.82145 12.2494 7.7786 12.3748 7.7786C12.5005 7.7786 12.6092 7.82451 12.701 7.91635C12.7929 8.00819 12.8388 8.11533 12.8388 8.23778C12.8388 8.36023 12.7929 8.46737 12.701 8.55921Z" fill="black"/>
</svg>
