<svg width="329" height="162" viewBox="0 0 329 162" fill="none" xmlns="http://www.w3.org/2000/svg">
<g opacity="0.3">
<path d="M28.5956 184.903C39.8334 144.933 74.0118 117.554 109.431 99.0564C131.048 87.7771 153.673 78.7125 175.665 68.0576C186.468 62.7819 197.508 57.2354 207.485 50.4212C212.041 47.3366 216.153 43.7502 219.943 39.7326C224.067 35.4182 228.068 31.0332 232.934 27.5553C252.827 13.3214 278.837 12.2532 300.087 0.761741C299.939 0.594441 299.765 0.330542 299.616 0.163242C275.468 22.4735 245.713 37.3828 213.764 44.4938C213.185 44.6491 213.444 45.6151 214.023 45.4598C246.178 39.1214 276.377 23.1617 300.184 0.735859C300.518 0.439149 300.073 -0.062759 299.713 0.13736C280.343 10.918 257.348 12.4206 238.127 23.3685C233.537 25.9442 229.322 29.1443 225.648 32.8204C221.472 36.9415 217.716 41.468 213.244 45.2546C203.649 53.1054 192.125 58.7814 181.155 64.2054C140.501 84.4162 95.9424 98.9438 62.1749 130.561C46.2691 145.383 33.4529 163.621 28.0868 184.936C27.8488 185.207 28.5059 185.342 28.5956 184.903Z" fill="#3A9C93"/>
<path d="M296.006 3.30464C282.63 11.3404 268.569 17.5927 254.167 23.7294C239.861 29.8403 225.704 36.1184 212.85 44.9459C212.322 45.2944 212.871 46.1826 213.399 45.8342C226.278 37.1033 240.532 30.7993 254.715 24.6177C268.802 18.462 283.45 12.4667 296.18 3.56854C296.374 3.51677 296.173 3.15628 296.006 3.30464Z" fill="#3A9C93"/>
<path d="M164.714 73.1659C172.129 68.3838 178.157 61.9028 182.244 53.9748C184.404 49.6692 185.854 45.036 188.722 41.0581C191.732 36.8353 195.754 33.687 199.724 30.3455C200.13 29.9263 199.607 29.1346 199.079 29.4831C191.381 34.7551 183.142 39.551 177.669 47.3326C175.136 51.0137 173.723 55.0157 172.363 59.2107C170.816 63.8699 169.224 68.748 165.176 71.7997C165.35 72.0636 165.499 72.2309 165.673 72.4948C170.994 67.2386 173.936 60.4456 177.49 54.0063C181.681 46.4646 187.059 40.2614 194.403 35.6018C194.764 35.4016 194.389 34.7773 194.055 35.074C187.257 39.0694 181.847 44.7638 177.887 51.6224C173.856 58.6034 170.806 66.1502 165.009 71.9481C164.674 72.2448 165.171 72.9399 165.506 72.6432C172.624 67.5265 172.825 57.8446 176.804 50.6703C181.772 41.7815 190.886 35.6124 199.486 30.6164C199.312 30.3525 199.015 30.0178 198.841 29.754C195.25 32.5797 191.614 35.6244 188.765 39.2867C185.819 42.9748 184.265 47.2216 182.299 51.4754C178.419 60.1762 172.238 67.63 164.347 72.9538C164.224 72.8831 164.45 73.3401 164.714 73.1659Z" fill="#3A9C93"/>
<path d="M112.527 97.0881C132.156 87.2734 155.76 88.8169 176.89 90.402C197.924 92.013 218.605 95.7888 239.134 100.537C250.165 103.069 261.241 105.381 272.617 105.335C272.539 105.045 272.558 104.729 272.48 104.44C252.748 108.071 232.325 111.058 212.359 108.022C202.315 106.469 192.919 103.086 183.259 99.8764C173.38 96.6223 163.277 94.4636 152.917 92.8914C141.9 91.1847 131.05 89.3296 120.116 92.5699C119.537 92.7252 119.77 93.5946 120.375 93.5359C138.678 89.9775 157.38 91.3852 175.734 93.8174C195.159 96.3772 214.545 99.5684 233.951 102.444C244.407 103.99 254.857 105.124 265.396 105.82C265.808 105.813 265.75 105.208 265.434 105.189C245.689 103.75 226.032 100.321 206.407 97.4009C187.974 94.6788 169.412 91.4738 150.673 90.6975C140.43 90.3361 130.202 90.7993 120.116 92.5699C120.194 92.8597 120.272 93.1495 120.375 93.5359C131.045 90.4698 141.36 92.2611 152.088 94.0454C162.377 95.7401 172.454 97.8022 182.429 101.03C192.063 104.143 201.485 107.623 211.529 109.176C221.013 110.569 230.572 110.7 240.118 110.005C251.094 109.239 261.907 107.48 272.642 105.432C273.125 105.302 273.015 104.503 272.506 104.536C261.639 104.549 251.027 102.423 240.531 99.956C230.254 97.5334 220.003 95.2073 209.591 93.4419C188.671 89.937 167.07 87.7534 145.884 88.6677C134.226 89.2034 122.543 91.195 111.986 96.6121C111.792 96.6638 112.167 97.2882 112.527 97.0881Z" fill="#3A9C93"/>
<path d="M53.3545 139.757C59.474 134.39 65.4641 128.541 69.6619 121.411C73.4355 115.017 75.6427 107.799 78.7332 101.174C82.222 93.7167 87.3428 88.0999 93.5848 82.8039C100.593 76.8886 107.749 71.1406 115.027 65.4633C114.782 65.3219 114.512 65.0839 114.363 64.9166C106.944 76.6362 99.3051 88.3111 91.1507 99.6064C83.0929 110.876 73.3066 120.331 63.0562 129.6C62.625 129.922 63.1926 130.495 63.6238 130.172C73.167 122.128 78.7513 110.9 85.4448 100.721C93.0127 89.1689 101.98 78.5875 112.082 69.1514C112.583 68.7063 111.868 67.9664 111.366 68.4115C101.572 77.4543 92.8883 87.5457 85.6292 98.7048C78.6787 109.471 73.0565 121.33 62.9596 129.626C63.108 129.793 63.3788 130.031 63.5272 130.198C73.7327 121.149 83.3776 111.938 91.2681 100.817C99.5639 89.277 106.854 77.0744 114.905 65.3926C115.117 65.0252 114.672 64.5233 114.311 64.7234C107.2 70.2523 100.185 75.7554 93.3449 81.5223C87.341 86.5475 82.1167 91.7779 78.5243 98.8486C75.144 105.552 72.8402 112.795 69.3634 119.524C65.2501 127.356 59.0669 133.257 52.9612 139.448C52.9164 139.667 53.1872 139.905 53.3545 139.757Z" fill="#3A9C93"/>
</g>
</svg>
