<svg width="23" height="22" viewBox="0 0 23 22" fill="none" xmlns="http://www.w3.org/2000/svg">
<path d="M21.2308 5.81361H17.3606C17.9178 5.10036 18.1867 4.19913 18.1131 3.29241C18.0394 2.38569 17.6285 1.54122 16.9637 0.930009C16.2989 0.318794 15.4298 -0.0134958 14.5324 0.000420063C13.635 0.0143359 12.7763 0.373418 12.1303 1.00496C11.8697 1.27238 11.6565 1.5833 11.5 1.9241C11.3435 1.5833 11.1303 1.27238 10.8697 1.00496C10.2237 0.373418 9.365 0.0143359 8.46759 0.000420063C7.57017 -0.0134958 6.70108 0.318794 6.03627 0.930009C5.37146 1.54122 4.96063 2.38569 4.88694 3.29241C4.81326 4.19913 5.08224 5.10036 5.63942 5.81361H1.76923C1.3 5.81361 0.849991 6.00256 0.518196 6.3389C0.1864 6.67523 0 7.1314 0 7.60705V11.1939C0 11.6696 0.1864 12.1257 0.518196 12.4621C0.849991 12.7984 1.3 12.9874 1.76923 12.9874V20.1611C1.76923 20.6368 1.95563 21.0929 2.28743 21.4293C2.61922 21.7656 3.06923 21.9545 3.53846 21.9545H19.4615C19.9308 21.9545 20.3808 21.7656 20.7126 21.4293C21.0444 21.0929 21.2308 20.6368 21.2308 20.1611V12.9874C21.7 12.9874 22.15 12.7984 22.4818 12.4621C22.8136 12.1257 23 11.6696 23 11.1939V7.60705C23 7.1314 22.8136 6.67523 22.4818 6.3389C22.15 6.00256 21.7 5.81361 21.2308 5.81361ZM13.3798 2.27157C13.5407 2.09154 13.7361 1.94652 13.954 1.84533C14.1718 1.74413 14.4077 1.68887 14.6473 1.68289C14.8869 1.67691 15.1252 1.72034 15.3478 1.81054C15.5703 1.90074 15.7725 2.03584 15.9419 2.20763C16.1114 2.37942 16.2447 2.58432 16.3337 2.80991C16.4226 3.03549 16.4655 3.27705 16.4596 3.51992C16.4537 3.7628 16.3992 4.00193 16.2993 4.2228C16.1995 4.44367 16.0565 4.64168 15.8788 4.8048C15.337 5.36525 13.7558 5.6679 12.4178 5.77999C12.5284 4.4237 12.8269 2.82081 13.3798 2.27157V2.27157ZM7.12115 2.27157C7.45423 1.93889 7.90307 1.7524 8.37067 1.7524C8.83828 1.7524 9.28711 1.93889 9.62019 2.27157C10.1731 2.82081 10.4716 4.4237 10.5822 5.77999C9.24423 5.6679 7.66298 5.36525 7.12115 4.8048C6.79296 4.46717 6.60899 4.01219 6.60899 3.53819C6.60899 3.06419 6.79296 2.60921 7.12115 2.27157V2.27157ZM1.76923 7.60705H10.6154V11.1939H1.76923V7.60705ZM3.53846 12.9874H10.6154V20.1611H3.53846V12.9874ZM19.4615 20.1611H12.3846V12.9874H19.4615V20.1611ZM21.2308 11.1939H12.3846V7.60705H21.2308V11.1939Z" fill="white"/>
</svg>
