<svg width="65" height="66" viewBox="0 0 65 66" fill="none" xmlns="http://www.w3.org/2000/svg">
<path d="M62.9032 34.3156C61.5333 31.3521 59.4366 28.9148 56.6409 27.0315C54.8237 25.7851 52.6989 24.8712 50.2667 24.2619C50.2108 19.6643 49.2043 15.5099 47.1914 11.854C45.1505 8.11498 42.1871 5.20688 38.2731 3.12967C34.4151 1.05245 30.0258 0 25.1892 0C17.7527 0 11.714 2.21569 7.0172 6.67478C2.34839 11.1062 0 17.2824 0 25.1204C0 29.2749 1.00645 33.2077 3.01935 36.9467C5.03226 40.6857 7.96774 43.6215 11.8817 45.7541C14.7333 47.3328 17.8925 48.3298 21.3032 48.7453V66H40.3699C43.557 66 46.3806 65.7507 48.8688 65.2799C51.329 64.7814 53.4258 64.089 55.1871 63.1473C56.9204 62.2056 58.5419 60.9039 59.9957 59.2698C61.4495 57.6357 62.6516 55.5585 63.6021 53.0659C64.5527 50.5732 65 47.6928 65 44.4524C64.972 40.658 64.3011 37.2791 62.9032 34.3156ZM12.2731 38.7193C8.86237 35.4234 7.15699 30.9366 7.15699 25.2312C7.15699 18.1133 8.91828 13.0172 12.4688 9.97062C16.0194 6.92405 20.2688 5.40075 25.1892 5.40075C28.6559 5.40075 31.7871 6.20394 34.5548 7.78263C37.3505 9.36131 39.4473 11.6047 40.9011 14.4574C42.2151 17.0608 42.914 20.0243 43.0538 23.431C41.9634 23.4033 40.7613 23.3756 39.4753 23.3756H21.3032V43.3168C17.8086 42.6798 14.8172 41.1565 12.2731 38.7193ZM42.8301 28.4717C42.243 32.7092 40.6495 36.0881 38.0215 38.6639C35.3656 41.2673 32.0946 42.8737 28.2925 43.3999V28.3886H39.3914C40.6495 28.3886 41.7957 28.4163 42.8301 28.4717ZM56.3892 52.595C55.4667 54.8661 54.1806 56.6664 52.5032 57.9958C51.329 58.9375 49.7355 59.6853 47.7785 60.2115C45.7935 60.7377 43.0538 60.987 39.5871 60.987H28.3204V48.8284C31.7032 48.4683 34.9183 47.5543 37.9376 46.0588C41.8796 44.12 44.9269 41.2396 47.0796 37.4452C48.4215 35.0911 49.3441 32.5153 49.8473 29.7734C51.8602 30.6874 53.5935 32.0999 55.0753 34.0663C56.8925 36.4759 57.7871 39.8825 57.7871 44.3693C57.7591 47.6097 57.3118 50.3517 56.3892 52.595Z" fill="#3A9C93"/>
</svg>
