<svg width="109" height="39" viewBox="0 0 109 39" fill="none" xmlns="http://www.w3.org/2000/svg">
<path d="M106.305 0.501538V0.861336H105.466V3.67976H105.107V0.861336H104.269V0.501538H106.305ZM107.623 3.67976L106.904 0.981272C106.904 1.16117 106.904 3.67976 106.904 3.67976H106.604V0.501538H107.084L107.802 3.20003L108.521 0.501538H109V3.67976H108.701C108.701 3.67976 108.701 1.16117 108.701 0.981272L107.982 3.67976H107.623ZM27.4896 0.501538C27.4896 0.501538 33.4786 0.441572 36.4731 0.501538C38.2099 0.561505 40.0066 0.741403 41.6835 1.461C43.3604 2.1806 44.5582 3.25999 45.0374 5.11895C45.4566 6.91795 45.6962 10.5159 41.7434 12.3149C41.3242 12.4948 40.9049 12.6747 40.4258 12.9146C41.2044 13.2744 41.9231 13.5143 42.5819 13.8741C43.6599 14.4138 46.6544 16.1528 46.2352 20.6503C45.9956 23.7685 43.9593 25.2677 42.1626 25.8674C40.6654 26.407 39.1082 26.7069 37.5511 26.7069C34.2571 26.7668 30.9632 26.7069 27.7291 26.7069C27.6692 26.7069 27.5494 26.7069 27.5494 26.7069V0.501538H27.4896ZM30.4242 25.5075C30.4242 25.5075 34.7962 25.5675 36.9522 25.5075C37.8505 25.5075 38.8088 25.3876 39.6473 25.1478C41.444 24.668 42.5819 23.5287 43.0011 21.7297C43.2407 20.7702 43.3005 19.7508 43.1808 18.7313C43.0011 16.6925 41.9231 15.3133 40.0665 14.4138C38.689 13.7541 37.2517 13.6942 35.8143 13.6342C34.1973 13.5742 32.5802 13.6342 30.9632 13.6342C30.7835 13.6342 30.3643 13.6942 30.3643 13.6942V25.5075H30.4242ZM30.4242 12.3749C32.5802 12.3749 34.6165 12.3749 36.6527 12.3749C37.2516 12.3749 37.8505 12.3149 38.4494 12.135C42.7615 11.1156 42.2225 6.67808 42.1027 5.59869C41.7434 1.6409 37.1319 1.76083 35.4549 1.6409C33.9577 1.58094 32.4604 1.6409 30.9632 1.6409C30.7835 1.6409 30.4242 1.6409 30.4242 1.6409V12.3749ZM93.0093 13.5742H83.1874V14.6536L90.0148 14.7736C90.0148 14.7736 90.0148 17.532 90.0148 18.9112C90.0148 22.6891 88.2181 24.8479 85.9423 25.6275C84.5648 26.1072 83.1874 25.9873 81.8099 25.6275C80.4324 25.2677 76.839 23.7086 75.9407 17.532C75.6412 15.673 75.6412 13.8741 75.7011 12.0151C76.0005 6.79801 77.917 4.09952 79.1747 2.96016C81.5703 0.741403 85.3434 0.921302 87.4396 3.02013C88.4577 4.03956 89.1165 5.29885 89.5357 6.61811C89.5956 6.79801 89.6555 6.97792 89.7753 7.09785H92.7099C92.65 6.85798 92.5901 6.61812 92.5302 6.37825C91.6918 3.73973 89.9549 1.88077 87.3797 0.801371C85.3434 -0.0381598 83.2473 -0.21806 81.1511 0.261672C78.2165 0.921303 73.1258 3.31996 72.7066 12.6747C72.6467 13.8141 72.7665 14.9535 72.8264 16.0928C73.3654 22.6891 77.3181 25.8673 79.8934 26.527C83.2472 27.3665 86.4214 27.3065 89.4758 25.6875C91.0928 24.8479 92.8297 23.4087 93.0093 19.4509C93.0692 17.6519 93.0093 13.5742 93.0093 13.5742ZM101.574 0.501538H98.6989V26.7668H101.574V0.501538ZM69.8319 26.7668L61.6269 0.501538H58.0335L49.8286 26.7668H51.0863L53.8412 18.0117H64.0225L66.7176 26.7668H69.8319ZM54.2604 16.6325L58.872 1.94073C58.872 1.94073 63.3038 15.1933 63.6033 16.6325H54.2604ZM0 13.6342C0 23.9484 6.0489 27.1266 11.0198 27.1266C15.9308 27.1266 22.0396 23.9484 22.0396 13.6342C22.0396 3.31996 15.9907 0.14174 11.0198 0.14174C6.0489 0.081774 0 3.26 0 13.6342ZM18.9253 13.6342C18.9253 18.6114 17.1885 25.9273 11.0198 25.9273C4.8511 25.9273 3.11429 18.6114 3.11429 13.6342C3.11429 8.65698 4.8511 1.34107 11.0198 1.34107C17.1885 1.34107 18.9253 8.59701 18.9253 13.6342ZM25.5132 38.7601L26.4714 32.7635L28.6275 37.5608L30.8434 32.7635L31.7418 38.7601H31.083L30.544 34.8023L28.6275 39L26.711 34.8023L26.172 38.7601H25.5132ZM39.5275 33.663H37.1918V35.3421H39.4077V35.9417H37.1918V38.1605H39.5275V38.7601H36.5929V33.1233H39.5275V33.663ZM44.3187 33.0633H45.4566C45.9956 33.0633 46.8341 33.1233 47.5527 33.7229C48.0918 34.1427 48.511 34.8623 48.511 35.8817C48.511 37.0811 47.9121 37.6807 47.4929 38.0405C46.9538 38.4603 46.4148 38.7002 45.3967 38.7002H44.3187V33.0633ZM44.9176 38.1605H45.4566C45.8758 38.1605 46.5346 38.1005 47.0736 37.6807C47.4929 37.3209 47.8522 36.7812 47.8522 35.9417C47.8522 34.5625 46.894 33.7229 45.4566 33.7229H44.9176V38.1605ZM53.9011 38.7601H53.3022V33.1233H53.9011V38.7601ZM63.244 34.3226C63.0643 34.1427 62.8247 33.9029 62.5253 33.7829C62.2258 33.663 61.8665 33.5431 61.567 33.5431C60.2495 33.5431 59.2912 34.6225 59.2912 35.8817C59.2912 37.4409 60.5489 38.2204 61.567 38.2204C61.9264 38.2204 62.3456 38.1005 62.6451 37.9806C62.9445 37.8007 63.1841 37.6208 63.3038 37.5008V38.2804C62.6451 38.7002 62.0462 38.8201 61.6269 38.8201C59.95 38.8201 58.6923 37.5608 58.6923 35.8817C58.6923 34.2027 59.95 32.9434 61.6269 32.9434C61.9863 32.9434 62.6451 33.0034 63.3038 33.4831V34.3226H63.244ZM70.9698 37.141H68.5742L67.9154 38.7601H67.1967L69.772 32.8235L72.2874 38.7601H71.5687L70.9698 37.141ZM70.7302 36.5414L69.772 34.2627L68.8137 36.5414H70.7302ZM77.3181 33.0633V38.1005H78.8753V38.7002H76.6593V33.0633H77.3181Z" fill="#142465"/>
</svg>
