<svg width="42" height="42" viewBox="0 0 42 42" fill="none" xmlns="http://www.w3.org/2000/svg">
<circle cx="21" cy="21" r="21" transform="rotate(-180 21 21)" fill="#F5F5F5"/>
<path d="M19.9714 12.3642L27.1929 19.5642C27.2786 19.6499 27.3392 19.7428 27.3746 19.8428C27.4106 19.9428 27.4286 20.0499 27.4286 20.1642C27.4286 20.2785 27.4106 20.3856 27.3746 20.4856C27.3392 20.5856 27.2786 20.6785 27.1929 20.7642L19.9714 27.9856C19.7714 28.1856 19.5214 28.2856 19.2214 28.2856C18.9214 28.2856 18.6643 28.1785 18.45 27.9642C18.2357 27.7499 18.1286 27.4999 18.1286 27.2142C18.1286 26.9285 18.2357 26.6785 18.45 26.4642L24.75 20.1642L18.45 13.8642C18.25 13.6642 18.15 13.4179 18.15 13.1254C18.15 12.8322 18.2572 12.5785 18.4714 12.3642C18.6857 12.1499 18.9357 12.0428 19.2214 12.0428C19.5072 12.0428 19.7572 12.1499 19.9714 12.3642Z" fill="black"/>
</svg>
