<svg width="168" height="41" viewBox="0 0 168 41" fill="none" xmlns="http://www.w3.org/2000/svg">
<path d="M154.54 32.0684H138.064L135.774 38.3595L136.668 39.9741L156.439 40.0298L156.997 39.139C156.886 38.8606 156.83 38.5822 156.718 38.3039L154.54 32.0684Z" fill="#DF026F"/>
<path d="M148.34 14.531C148.117 13.8629 147.894 13.1948 147.67 12.5268C147.447 11.8587 147.223 11.2462 147 10.5782C146.777 9.96574 146.553 9.35332 146.386 8.74091C146.218 9.35332 145.995 9.96574 145.771 10.5782C145.548 11.1906 145.325 11.803 145.045 12.4711C144.822 13.1392 144.598 13.8073 144.319 14.531C144.04 15.1991 143.817 15.9229 143.537 16.591L138.511 30.6209H154.037L149.067 16.5353C148.843 15.8672 148.564 15.1991 148.34 14.531Z" fill="#DF026F"/>
<path d="M147.447 7.57174L158.114 37.1904L166.38 22.9378L156.551 5.84584L136.723 5.79016L126.838 22.8821L134.657 36.4667L145.269 7.57174H147.447Z" fill="#DF026F"/>
<path d="M160.572 4.45394V3.11776C160.795 3.17343 160.963 3.17343 161.186 3.17343C161.354 3.17343 161.577 3.17343 161.801 3.17343H163.644V1.11348C163.644 0.890787 163.644 0.723765 163.644 0.556742C163.644 0.38972 163.644 0.222697 163.588 0H164.984C164.984 0.222697 164.928 0.445394 164.928 0.556742C164.928 0.723765 164.928 0.890787 164.928 1.11348V3.17343H166.883C167.106 3.17343 167.274 3.17343 167.441 3.17343C167.609 3.17343 167.777 3.17343 168 3.11776V4.45394C167.777 4.45394 167.609 4.39826 167.441 4.39826C167.274 4.39826 167.106 4.39826 166.883 4.39826H164.928V6.40254C164.928 6.62523 164.928 6.79225 164.928 7.01495C164.928 7.18197 164.928 7.40467 164.984 7.62737H163.588C163.588 7.40467 163.644 7.18197 163.644 7.01495C163.644 6.84793 163.644 6.62523 163.644 6.40254V4.39826H161.801C161.577 4.39826 161.354 4.39826 161.186 4.39826C160.963 4.39826 160.739 4.45394 160.572 4.45394Z" fill="#DF026F"/>
<path d="M4.13298 35.1861V10.0771H0V5.90149H11.1702C14.242 5.90149 16.5319 6.06851 18.0957 6.45823C19.6037 6.84795 21 7.73874 22.1729 9.24194C23.3457 10.7451 23.9601 12.5267 23.9601 14.531C23.9601 16.0899 23.625 17.4817 22.8989 18.7622C22.1729 19.9871 21.1676 20.9335 19.8271 21.6016C21.6702 22.214 23.1223 23.3275 24.1277 24.775C25.133 26.2782 25.6356 27.9485 25.6356 29.8414C25.6356 31.5116 25.2447 33.0148 24.5186 34.351C23.7926 35.6872 22.7872 36.745 21.5585 37.4688C20.3298 38.1925 18.9894 38.6936 17.4814 38.972C16.0293 39.2503 14.0186 39.3617 11.4495 39.3617H0V35.1861H4.13298ZM9.21543 19.82H12.3989C14.8005 19.82 16.4761 19.4303 17.4814 18.5395C18.4309 17.7044 18.9335 16.4796 18.9335 14.8094C18.9335 11.6359 16.7553 10.0214 12.4548 10.0214H9.27128V19.82H9.21543ZM9.21543 35.1861H11.1144C13.6277 35.1861 15.4149 35.0748 16.5878 34.7964C17.7606 34.5737 18.7101 33.9613 19.4362 33.0705C20.1622 32.124 20.5532 30.9549 20.5532 29.5074C20.5532 28.1712 20.2181 27.1134 19.492 26.2226C18.766 25.3318 17.8723 24.7194 16.7553 24.441C15.6383 24.1626 14.0745 23.9956 12.0638 23.9956H9.15957V35.1861H9.21543Z" fill="#363636"/>
<path d="M29.6011 27.7258C29.6011 24.1069 30.7739 21.2119 33.1755 18.8736C35.5771 16.5909 38.4814 15.4218 41.8883 15.4218C45.2394 15.4218 48.1436 16.5352 50.5452 18.8179C52.9468 21.1005 54.1755 24.0513 54.1755 27.7258C54.1755 31.4003 53.0027 34.351 50.6011 36.6336C48.1436 38.9163 45.2394 40.0298 41.8325 40.0298C38.3697 40.0298 35.4654 38.8606 33.0638 36.578C30.7739 34.2953 29.6011 31.2889 29.6011 27.7258ZM34.4043 27.7258C34.4043 30.2868 35.2979 32.3467 37.141 33.9056C38.3697 34.9634 39.9894 35.5201 41.5532 35.5758C43.7872 35.6315 45.6303 34.9077 47.1383 33.3489C48.5346 31.8456 49.2607 30.0084 49.2607 27.7258C49.2607 24.6637 47.9761 22.381 45.4069 20.7665C44.7926 20.3768 44.0665 20.0984 43.2846 19.987C40.4362 19.5973 38.2021 20.3211 36.4708 22.1583C35.1303 23.6059 34.4043 25.4988 34.4043 27.7258Z" fill="#363636"/>
<path d="M61.0453 35.1861V10.0771H56.7447V5.90149H70.4282V10.0771H66.3511V35.1861H76.6277V23.8286H81.3192V39.3617H56.7447V35.1861H61.0453Z" fill="#363636"/>
<path d="M112.596 25.7772L116.952 28.2268C115.947 31.957 113.992 34.8521 110.976 36.8563C108.016 38.9163 104.553 39.9184 100.699 39.9184C95.617 39.9184 91.5399 38.2482 88.4681 34.9634C85.3963 31.6786 83.8325 27.6144 83.8325 22.7708C83.8325 17.4817 85.3963 13.2505 88.4681 10.077C91.5399 6.95928 95.5612 5.34473 100.532 5.34473C104.944 5.34473 108.63 6.51389 111.59 8.90788V5.84579H115.947V16.6466H111.59C110.641 14.4753 109.133 12.8051 107.122 11.5802C105.112 10.4111 102.989 9.79866 100.755 9.79866C97.4043 9.79866 94.6676 11.0235 92.5452 13.4175C90.4787 15.8115 89.3617 18.8736 89.3617 22.5481C89.3617 26.3339 90.5346 29.396 92.8245 31.79C95.1144 34.184 97.8511 35.3531 100.979 35.3531C103.548 35.3531 105.949 34.518 108.072 32.8478C110.194 31.1776 111.702 28.8392 112.596 25.7772Z" fill="#363636"/>
</svg>
