<svg width="14" height="14" viewBox="0 0 14 14" fill="none" xmlns="http://www.w3.org/2000/svg">
<path d="M13.2222 9.72222C12.25 9.72222 11.3167 9.56667 10.4456 9.27889C10.3088 9.23533 10.1628 9.22969 10.0231 9.26256C9.88338 9.29543 9.75521 9.36559 9.65222 9.46556L7.94111 11.1767C5.73315 10.0537 3.9385 8.25908 2.81556 6.05111L4.52667 4.33222C4.62968 4.23449 4.70269 4.1094 4.73713 3.97164C4.77157 3.83388 4.76601 3.68916 4.72111 3.55444C4.42606 2.65849 4.27639 1.72106 4.27778 0.777778C4.27778 0.35 3.92778 0 3.5 0H0.777778C0.35 0 0 0.35 0 0.777778C0 8.08111 5.91889 14 13.2222 14C13.65 14 14 13.65 14 13.2222V10.5C14 10.0722 13.65 9.72222 13.2222 9.72222ZM12.4444 7H14C14 5.14348 13.2625 3.36301 11.9497 2.05025C10.637 0.737498 8.85652 0 7 0V1.55556C10.01 1.55556 12.4444 3.99 12.4444 7ZM9.33333 7H10.8889C10.8889 4.85333 9.14667 3.11111 7 3.11111V4.66667C8.29111 4.66667 9.33333 5.70889 9.33333 7Z" fill="black"/>
</svg>
