<svg width="17" height="15" viewBox="0 0 17 15" fill="none" xmlns="http://www.w3.org/2000/svg">
<path d="M6.75 15C6.55109 15 6.36032 14.921 6.21967 14.7803C6.07902 14.6397 6 14.4489 6 14.25C6 14.0511 6.07902 13.8603 6.21967 13.7197C6.36032 13.579 6.55109 13.5 6.75 13.5H13C13.5304 13.5 14.0391 13.2893 14.4142 12.9142C14.7893 12.5391 15 12.0304 15 11.5V3.5C15 2.96957 14.7893 2.46086 14.4142 2.08579C14.0391 1.71071 13.5304 1.5 13 1.5H6.75C6.55109 1.5 6.36032 1.42098 6.21967 1.28033C6.07902 1.13968 6 0.948912 6 0.75C6 0.551088 6.07902 0.360322 6.21967 0.21967C6.36032 0.0790175 6.55109 0 6.75 0H13C13.9283 0 14.8185 0.368749 15.4749 1.02513C16.1313 1.6815 16.5 2.57174 16.5 3.5V11.5C16.5 12.4283 16.1313 13.3185 15.4749 13.9749C14.8185 14.6313 13.9283 15 13 15H6.75ZM6.741 3.699C6.81335 3.63214 6.89816 3.58019 6.9906 3.54612C7.08303 3.51205 7.18127 3.49652 7.2797 3.50042C7.37813 3.50432 7.47484 3.52757 7.56428 3.56885C7.65373 3.61013 7.73417 3.66863 7.801 3.741L10.801 6.991C10.929 7.12957 11.0002 7.31132 11.0002 7.5C11.0002 7.68868 10.929 7.87043 10.801 8.009L7.801 11.259C7.73409 11.3313 7.6536 11.3897 7.56412 11.4309C7.47464 11.4721 7.37792 11.4952 7.27949 11.499C7.18106 11.5028 7.08284 11.4872 6.99045 11.4531C6.89806 11.4189 6.81329 11.3669 6.741 11.3C6.66871 11.2331 6.6103 11.1526 6.56912 11.0631C6.52793 10.9736 6.50477 10.8769 6.50097 10.7785C6.49328 10.5797 6.56487 10.386 6.7 10.24L8.538 8.249H0.75C0.551088 8.249 0.360322 8.16998 0.21967 8.02933C0.0790177 7.88868 0 7.69791 0 7.499C0 7.30009 0.0790177 7.10932 0.21967 6.96867C0.360322 6.82802 0.551088 6.749 0.75 6.749H8.537L6.699 4.759C6.63214 4.68665 6.58019 4.60184 6.54612 4.5094C6.51205 4.41697 6.49652 4.31873 6.50042 4.2203C6.50432 4.12187 6.52757 4.02516 6.56885 3.93572C6.61013 3.84627 6.66863 3.76583 6.741 3.699Z" fill="black"/>
</svg>
