<svg width="311" height="109" viewBox="0 0 311 109" fill="none" xmlns="http://www.w3.org/2000/svg">
<g opacity="0.3">
<path d="M310.189 0.197165C288.989 35.8972 248.889 53.4972 209.889 62.1972C186.089 67.4972 161.889 70.3972 137.889 74.9972C126.089 77.2972 113.989 79.7972 102.589 83.7972C97.3889 85.5972 92.4889 87.9972 87.7889 90.8972C82.6889 93.9972 77.6889 97.1972 72.0889 99.2972C49.1889 107.897 23.7889 102.197 0.288889 107.797C0.388889 107.997 0.488889 108.297 0.588889 108.497C29.6889 93.1972 62.2889 86.4972 94.9889 87.8972C95.5889 87.8972 95.5889 86.8972 94.9889 86.8972C62.2889 84.6972 28.9889 92.2972 0.188889 107.797C-0.211111 107.997 0.088889 108.597 0.488889 108.497C21.9889 103.097 44.5889 107.597 65.9889 101.997C71.0889 100.697 75.9889 98.6972 80.4889 96.0972C85.5889 93.1972 90.3889 89.7972 95.6889 87.2972C106.989 82.1972 119.589 79.6972 131.589 77.2972C176.089 68.2972 222.889 65.7972 263.689 43.9972C282.889 33.7972 299.989 19.4972 310.689 0.297165C310.989 0.097165 310.389 -0.202835 310.189 0.197165Z" fill="#3A9C93"/>
<path d="M4.88889 106.397C19.8889 102.097 35.0889 99.6972 50.5889 97.4972C65.9889 95.2972 81.2889 92.8972 95.9889 87.6972C96.5889 87.4972 96.2889 86.4972 95.6889 86.6972C80.9889 91.7972 65.5889 94.1972 50.2889 96.4972C35.0889 98.7972 19.3889 100.797 4.78889 106.097C4.58889 106.097 4.68889 106.497 4.88889 106.397Z" fill="#3A9C93"/>
<path d="M149.789 72.8971C141.389 75.5971 133.889 80.2971 127.889 86.8971C124.689 90.4971 122.089 94.5971 118.289 97.6971C114.289 100.997 109.589 102.997 104.889 105.197C104.389 105.497 104.689 106.397 105.289 106.197C114.089 103.097 123.289 100.597 130.589 94.4971C133.989 91.5971 136.389 88.0971 138.789 84.3971C141.489 80.2971 144.289 75.9971 148.989 74.0971C148.889 73.7971 148.789 73.5972 148.689 73.2972C142.189 76.9972 137.589 82.7971 132.489 88.0971C126.489 94.2971 119.689 98.8971 111.389 101.497C110.989 101.597 111.189 102.297 111.589 102.097C119.189 99.9971 125.889 95.8972 131.489 90.2972C137.189 84.5972 142.089 78.0971 149.189 73.9971C149.589 73.7971 149.289 72.9971 148.889 73.1971C140.689 76.2971 137.989 85.5971 132.289 91.4971C125.189 98.7971 114.789 102.397 105.189 104.997C105.289 105.297 105.489 105.697 105.589 105.997C109.789 104.197 114.089 102.197 117.789 99.3972C121.589 96.5972 124.189 92.8972 127.189 89.2972C133.189 81.8972 141.089 76.2971 150.089 73.1971C150.189 73.2971 150.089 72.7971 149.789 72.8971Z" fill="#3A9C93"/>
<path d="M206.389 63.2972C184.889 67.6972 162.489 60.0972 142.489 53.0972C122.589 46.0972 103.589 37.0972 84.9889 27.1972C74.9889 21.8972 64.8889 16.7972 53.8889 13.8972C53.8889 14.1972 53.7889 14.4972 53.7889 14.7972C73.7889 16.3972 94.2889 18.7972 112.789 26.8972C122.089 30.9972 130.289 36.6972 138.789 42.2972C147.489 47.9972 156.689 52.6972 166.289 56.8972C176.489 61.3972 186.489 65.9972 197.889 65.6972C198.489 65.6972 198.489 64.7972 197.889 64.6972C179.289 63.3972 161.589 57.1972 144.489 50.0972C126.389 42.5972 108.489 34.4972 90.4889 26.6972C80.7889 22.4972 70.9889 18.6972 60.9889 15.2972C60.5889 15.1972 60.4889 15.7972 60.7889 15.8972C79.4889 22.3972 97.5889 30.7972 115.789 38.6972C132.889 46.0972 149.989 53.9972 167.889 59.5972C177.689 62.5972 187.689 64.7972 197.889 65.6972C197.889 65.3972 197.889 65.0972 197.889 64.6972C186.789 64.8972 177.289 60.4972 167.389 55.9972C157.889 51.6972 148.689 47.0972 139.889 41.3972C131.389 35.8972 123.189 30.0972 113.889 25.9972C105.089 22.1972 95.8889 19.5972 86.4889 17.7972C75.6889 15.6972 64.7889 14.5972 53.8889 13.7972C53.3889 13.7972 53.2889 14.5972 53.7889 14.6972C64.2889 17.4972 73.9889 22.2972 83.4889 27.3972C92.7889 32.3972 102.089 37.2972 111.689 41.6972C130.989 50.4972 151.289 58.1972 171.989 62.7972C183.389 65.2972 195.189 66.3972 206.789 63.8972C206.989 63.8972 206.789 63.1972 206.389 63.2972Z" fill="#3A9C93"/>
<path d="M274.589 37.3972C267.289 40.9972 259.989 45.0972 254.089 50.8972C248.789 56.0972 244.789 62.4972 240.089 68.0972C234.789 74.3972 228.389 78.4972 220.989 81.9972C212.689 85.8972 204.289 89.5972 195.789 93.1972C195.989 93.3972 196.189 93.6972 196.289 93.8972C206.489 84.4972 216.889 75.1972 227.689 66.3972C238.389 57.5972 250.289 50.9972 262.589 44.6972C263.089 44.4972 262.689 43.7972 262.189 43.9972C250.889 49.2972 242.589 58.6972 233.489 66.7972C223.189 75.9972 211.789 83.8972 199.589 90.3972C198.989 90.6972 199.489 91.5972 200.089 91.2972C211.889 85.0972 222.889 77.5972 232.789 68.6972C242.289 60.0972 250.789 50.0972 262.689 44.6972C262.589 44.4972 262.389 44.1972 262.289 43.9972C250.089 50.0972 238.389 56.4972 227.889 65.1972C216.889 74.1972 206.689 84.0972 195.889 93.2972C195.589 93.5972 195.889 94.1972 196.289 94.0972C204.589 90.5972 212.789 87.0972 220.889 83.2972C227.989 79.9972 234.389 76.2972 239.689 70.3972C244.689 64.7972 248.789 58.3972 253.889 52.7972C259.889 46.2972 267.389 42.1972 274.889 37.7972C274.989 37.5972 274.789 37.2972 274.589 37.3972Z" fill="#3A9C93"/>
</g>
</svg>
