<svg width="42" height="42" viewBox="0 0 42 42" fill="none" xmlns="http://www.w3.org/2000/svg">
<circle cx="21" cy="21" r="21" fill="#F5F5F5"/>
<path d="M22.0286 29.6358L14.8071 22.4358C14.7214 22.3501 14.6608 22.2572 14.6254 22.1572C14.5894 22.0572 14.5714 21.9501 14.5714 21.8358C14.5714 21.7215 14.5894 21.6144 14.6254 21.5144C14.6608 21.4144 14.7214 21.3215 14.8071 21.2358L22.0286 14.0144C22.2286 13.8144 22.4786 13.7144 22.7786 13.7144C23.0786 13.7144 23.3357 13.8215 23.55 14.0358C23.7643 14.2501 23.8714 14.5001 23.8714 14.7858C23.8714 15.0715 23.7643 15.3215 23.55 15.5358L17.25 21.8358L23.55 28.1358C23.75 28.3358 23.85 28.5821 23.85 28.8746C23.85 29.1678 23.7428 29.4215 23.5286 29.6358C23.3143 29.8501 23.0643 29.9572 22.7786 29.9572C22.4928 29.9572 22.2428 29.8501 22.0286 29.6358Z" fill="black"/>
</svg>
