<svg width="23" height="23" viewBox="0 0 23 23" fill="none" xmlns="http://www.w3.org/2000/svg">
<path d="M19.6403 8.14034V3.35966H14.8698L11.4797 0L8.14034 3.35966H3.35966V8.14034L0 11.4797L3.35966 14.8698V19.6403H8.14034L11.4797 23L14.8698 19.6403H19.6403V14.8698L23 11.4797L19.6403 8.14034M8.26214 6.45543C9.25684 6.45543 10.0587 7.25728 10.0587 8.26214C10.0587 8.73861 9.86941 9.19557 9.53249 9.53249C9.19557 9.86941 8.73861 10.0587 8.26214 10.0587C7.25728 10.0587 6.45543 9.25684 6.45543 8.26214C6.45543 7.25728 7.25728 6.45543 8.26214 6.45543ZM14.748 16.5547C13.7533 16.5547 12.9515 15.7427 12.9515 14.748C12.9515 14.2715 13.1407 13.8146 13.4777 13.4777C13.8146 13.1407 14.2715 12.9515 14.748 12.9515C15.7427 12.9515 16.5547 13.7533 16.5547 14.748C16.5547 15.2272 16.3644 15.6867 16.0255 16.0255C15.6867 16.3644 15.2272 16.5547 14.748 16.5547ZM7.92718 16.5852L6.40468 15.0627L15.0627 6.40468L16.5852 7.92718L7.92718 16.5852V16.5852Z" fill="white"/>
</svg>
