<svg width="23" height="23" viewBox="0 0 23 23" fill="none" xmlns="http://www.w3.org/2000/svg">
<path d="M20.7784 22.608L13.4602 15.2898C12.8068 15.8125 12.0554 16.2263 11.206 16.5312C10.3565 16.8362 9.45265 16.9886 8.49432 16.9886C6.12027 16.9886 4.11125 16.1666 2.46727 14.5227C0.822424 12.8778 0 10.8684 0 8.49432C0 6.12027 0.822424 4.11081 2.46727 2.46597C4.11125 0.821989 6.12027 0 8.49432 0C10.8684 0 12.8778 0.821989 14.5227 2.46597C16.1666 4.11081 16.9886 6.12027 16.9886 8.49432C16.9886 9.45265 16.8362 10.3565 16.5312 11.206C16.2263 12.0554 15.8125 12.8068 15.2898 13.4602L22.6406 20.8111C22.8802 21.0507 23 21.3447 23 21.6932C23 22.0417 22.8693 22.3466 22.608 22.608C22.3684 22.8475 22.0634 22.9673 21.6932 22.9673C21.3229 22.9673 21.018 22.8475 20.7784 22.608ZM8.49432 14.375C10.1278 14.375 11.5166 13.8035 12.6605 12.6605C13.8035 11.5166 14.375 10.1278 14.375 8.49432C14.375 6.8608 13.8035 5.47208 12.6605 4.32818C11.5166 3.18515 10.1278 2.61364 8.49432 2.61364C6.8608 2.61364 5.47208 3.18515 4.32818 4.32818C3.18515 5.47208 2.61364 6.8608 2.61364 8.49432C2.61364 10.1278 3.18515 11.5166 4.32818 12.6605C5.47208 13.8035 6.8608 14.375 8.49432 14.375Z" fill="#A9A9A9"/>
</svg>
